HIERARCHY
ROOT Hips
{
	OFFSET 0.000000 0.000000 0.000000 
	CHANNELS 6 Xposition Yposition Zposition Yrotation Zrotation Xrotation 
	JOINT Lumbar
	{
		OFFSET 0.000000 0.000000 0.000000 
		CHANNELS 3 Zrotation Xrotation Yrotation
		JOINT Neck
		{
			OFFSET 0.000000 0.445665 0.000000 
			CHANNELS 3 Zrotation Xrotation Yrotation
			End Site
			{
				OFFSET 0.000000 0.227535 0.000000 
			}
		}
		JOINT RightShoulder
		{
			OFFSET 0.019635 0.377685 0.194865 
			CHANNELS 3 Zrotation Xrotation Yrotation
			JOINT RightElbow
			{
				OFFSET 0.000000 -0.243375 0.000000 
				CHANNELS 2 Zrotation Yrotation
				JOINT RightWrist
				{
					OFFSET 0.000000 -0.264825 0.000000 
					CHANNELS 2 Zrotation Xrotation
					End Site
					{
						OFFSET 0.006600 -0.176220 0.000990 
					}
				}
			}
		}
		JOINT LeftShoulder
		{
			OFFSET 0.019635 0.377685 -0.194865 
			CHANNELS 3 Zrotation Xrotation Yrotation
			JOINT LeftElbow
			{
				OFFSET 0.000000 -0.243375 0.000000 
				CHANNELS 2 Zrotation Yrotation
				JOINT LeftWrist
				{
					OFFSET 0.000000 -0.264825 0.000000 
					CHANNELS 2 Zrotation Xrotation
					End Site
					{
						OFFSET 0.006600 -0.176220 -0.000990 
					}
				}
			}
		}
	}
	JOINT RightHip
	{
		OFFSET 0.052140 -0.069960 0.075570 
		CHANNELS 3 Zrotation Xrotation Yrotation
		JOINT RightKnee
		{
			OFFSET 0.000000 -0.402270 0.000000 
			CHANNELS 1 Zrotation
			JOINT RightAnkle
			{
				OFFSET 0.000000 -0.404085 0.000000 
				CHANNELS 3 Zrotation Xrotation Yrotation
				End Site
				{
					OFFSET 0.204105 -0.089430 0.008415 
				}
			}
		}
	}
	JOINT LeftHip
	{
		OFFSET 0.052140 -0.069960 -0.075570 
		CHANNELS 3 Zrotation Xrotation Yrotation
		JOINT LeftKnee
		{
			OFFSET 0.000000 -0.402270 0.000000 
			CHANNELS 1 Zrotation
			JOINT LeftAnkle
			{
				OFFSET 0.000000 -0.404085 0.000000 
				CHANNELS 3 Zrotation Xrotation Yrotation
				End Site
				{
					OFFSET 0.204105 -0.089430 -0.008415 
				}
			}
		}
	}
}
MOTION
Frames: 26
Frame Time: 0.02
-0 0.95578 -0 178.26665 0 2.4411 8.94318 0.09254 0.35497 -30.04405 0.16678 0.61178 21.00146 -9.25268 -2.8081 11.09551 82.07043 0.46345 -0.0002 21.99418 6.98982 6.77457 8.47131 -72.13444 -3.91076 -2.26008 -2.17001 1.52338 12.20609 -18.96368 12.08207 -10.9498 -14.46845 -3.52401 -1.70018 -6.0211 -14.04208 9.63666 8.91707 12.93203
0.00107 0.95576 0.00031 178.24044 0 2.44141 8.65616 0.13762 0.26377 -28.35668 0.31758 0.51217 19.61215 -9.44065 -2.71583 10.84678 82.13362 0.47798 0.21622 20.51806 7.04218 7.18857 8.24658 -72.20529 -4.13952 -2.13767 -2.0657 1.52139 12.24144 -19.03976 12.09225 -10.93908 -14.48784 -3.4183 -1.73991 -6.11093 -14.1391 9.63409 8.92992 13.03513
0.00213 0.95574 0.00063 178.21397 0 2.44167 8.37006 0.18252 0.17189 -26.67646 0.46826 0.41471 18.22778 -9.62931 -2.62381 10.60041 82.19633 0.49206 0.43086 19.04838 7.09295 7.59685 8.02419 -72.27739 -4.36642 -2.01583 -1.96176 1.51932 12.27709 -19.11542 12.10221 -10.92841 -14.50715 -3.31324 -1.77945 -6.19954 -14.23523 9.63149 8.94264 13.1373
0.00319 0.95571 0.00095 178.18616 0 2.44166 8.08447 0.22721 0.07573 -25.00546 0.61961 0.32568 16.84701 -9.82222 -2.53172 10.3607 82.25782 0.50423 0.64031 17.58707 7.13829 7.98947 7.8079 -72.35618 -4.58802 -1.89612 -1.85862 1.51706 12.31378 -19.18946 12.11123 -10.91787 -14.52618 -3.20993 -1.81837 -6.28411 -14.32856 9.62873 8.95509 13.2367
0.00427 0.95568 0.00125 178.16538 0 2.44297 7.79574 0.27314 0.00139 -23.28209 0.76704 0.19296 15.44401 -9.99223 -2.43983 10.08529 82.32588 0.52621 0.87703 16.07773 7.21287 8.46886 7.55804 -72.40076 -4.8376 -1.76634 -1.75165 1.51597 12.34437 -19.2713 12.12509 -10.90664 -14.54652 -3.09756 -1.8603 -6.39004 -14.43651 9.62678 8.9691 13.35067
0.00532 0.95567 0.00159 178.1298 0 2.44158 7.51422 0.31632 -0.11844 -21.6736 0.9229 0.15211 14.0916 -10.21078 -2.34771 9.88595 82.37994 0.52761 1.05599 14.67401 7.22523 8.76168 7.38029 -72.5168 -5.02782 -1.65719 -1.6526 1.51232 12.38823 -19.33711 12.12879 -10.89689 -14.56422 -3.00431 -1.896 -6.45072 -14.5136 9.62313 8.97974 13.43376
0.0063 0.95572 0.00204 178.05058 0 2.43171 7.24312 0.35355 -0.3768 -20.32968 1.1044 0.37886 12.82853 -10.57194 -2.25125 9.89627 82.39576 0.46855 1.07328 13.51306 7.06246 8.55 7.39658 -72.84793 -5.05275 -1.61109 -1.57608 1.5021 12.46794 -19.35396 12.10256 -10.89109 -14.57349 -2.96452 -1.91327 -6.38338 -14.503 9.61466 8.98151 13.43055
0.00725 0.95578 0.00254 177.95685 0 2.41928 6.98085 0.38775 -0.67895 -19.11049 1.29397 0.69607 11.62494 -10.98071 -2.15506 9.98336 82.39738 0.38928 1.03265 12.46698 6.83746 8.14794 7.48648 -73.24834 -5.01799 -1.58481 -1.50744 1.4892 12.56117 -19.35539 12.06636 -10.8868 -14.58028 -2.94385 -1.9245 -6.27087 -14.46173 9.60453 8.97983 13.39637
0.0082 0.95583 0.00301 177.87141 0 2.40873 6.72018 0.42233 -0.95304 -17.86611 1.47881 0.96311 10.42462 -11.36292 -2.06109 10.03572 82.40526 0.32157 1.01996 11.39807 6.64267 7.82543 7.54623 -73.60586 -5.01152 -1.54526 -1.4346 1.47719 12.64899 -19.36711 12.03589 -10.88195 -14.58904 -2.91394 -1.93935 -6.18089 -14.43604 9.59524 8.97946 13.37699
0.0092 0.95589 0.00349 177.77874 0 2.39527 6.43536 0.46112 -1.26169 -16.48672 1.66897 1.26826 9.09437 -11.76688 -1.95745 10.08785 82.41403 0.24397 1.0005 10.20324 6.4391 7.53149 7.59266 -74.01132 -5.00033 -1.52304 -1.36406 1.46656 12.73419 -19.36547 12.00041 -10.87667 -14.59445 -2.88638 -1.95054 -6.08237 -14.40328 9.58553 8.98011 13.35445
0.0101 0.95594 0.00398 177.69779 0 2.38714 6.20357 0.49044 -1.50858 -15.42105 1.84893 1.51565 8.05168 -12.13559 -1.87374 10.15816 82.41748 0.18201 0.98127 9.30065 6.23982 7.13389 7.68354 -74.33359 -4.98455 -1.47026 -1.29098 1.45246 12.82747 -19.38739 11.97292 -10.87254 -14.606 -2.85847 -1.96784 -5.99106 -14.37813 9.57638 8.97789 13.33127
0.01075 0.95596 0.00449 177.65201 0 2.39522 6.11046 0.49406 -1.57572 -15.1656 2.00794 1.58048 7.76337 -12.40614 -1.8473 10.26443 82.41052 0.16955 0.97777 9.15301 6.06078 6.48755 7.88587 -74.40743 -4.97267 -1.32113 -1.20575 1.42917 12.94463 -19.48322 11.97045 -10.872 -14.63711 -2.82463 -2.00432 -5.92936 -14.38021 9.56837 8.96787 13.31286
0.0113 0.95598 0.00502 177.61875 0 2.40853 6.07146 0.4883 -1.57892 -15.22617 2.15477 1.5842 7.76688 -12.63758 -1.84048 10.38556 82.39847 0.1733 0.9763 9.29969 5.88947 5.74515 8.12915 -74.39546 -4.95785 -1.1419 -1.11834 1.40253 13.06849 -19.60222 11.97622 -10.8724 -14.67407 -2.78977 -2.04698 -5.87682 -14.39133 9.56113 8.95523 13.2951
0.01189 0.956 0.00555 177.58019 0 2.41892 6.01131 0.48698 -1.61043 -15.15894 2.3011 1.61658 7.65339 -12.87982 -1.8231 10.49686 82.38835 0.16873 0.97331 9.32759 5.71907 5.05268 8.34929 -74.42396 -4.94312 -0.98108 -1.03396 1.37757 13.18619 -19.70742 11.97795 -10.87187 -14.70709 -2.75562 -2.08628 -5.82087 -14.39905 9.55407 8.94425 13.27766
0.01252 0.95602 0.00608 177.5392 0 2.43173 5.93685 0.48477 -1.64666 -15.02984 2.47296 1.64858 7.47668 -13.15306 -1.81256 10.62363 82.37972 0.16737 0.97093 9.29731 5.52781 4.32709 8.59112 -74.44878 -4.93162 -0.80093 -0.94102 1.35181 13.31778 -19.82634 11.98078 -10.87358 -14.74561 -2.72129 -2.1278 -5.75978 -14.4024 9.54469 8.93111 13.25639
0.01303 0.95604 0.0066 177.50678 0 2.44051 5.90502 0.48228 -1.65728 -15.10237 2.58896 1.6654 7.49937 -13.35194 -1.79259 10.72097 82.36648 0.16355 0.96839 9.45533 5.38268 3.65012 8.79653 -74.45984 -4.91339 -0.65373 -0.86558 1.32701 13.42149 -19.9218 11.98313 -10.87075 -14.77391 -2.6866 -2.16613 -5.71262 -14.4178 9.54038 8.92194 13.24385
0.01326 0.95606 0.00707 177.49201 0 2.43905 5.97713 0.48076 -1.61265 -15.66069 2.55097 1.65736 8.00933 -13.35422 -1.74032 10.73074 82.34613 0.14822 0.96609 10.07301 5.36277 3.13306 8.89114 -74.45505 -4.87834 -0.60414 -0.83624 1.30518 13.44973 -19.95207 11.98476 -10.85568 -14.77429 -2.65321 -2.19518 -5.698 -14.46108 9.54951 8.92395 13.25368
0.01338 0.95608 0.00753 177.48605 0 2.43299 6.09046 0.47936 -1.54422 -16.40999 2.4578 1.63537 8.70881 -13.28315 -1.67824 10.71055 82.32072 0.13009 0.96365 10.86794 5.38923 2.66947 8.94729 -74.43891 -4.83673 -0.58886 -0.82499 1.2845 13.44908 -19.95717 11.98522 -10.8359 -14.76394 -2.61904 -2.2207 -5.69796 -14.51695 9.56379 8.93015 13.2727
0.01354 0.95611 0.008 177.47808 0 2.4276 6.18501 0.47834 -1.48669 -17.06604 2.39142 1.61785 9.31506 -13.24571 -1.62148 10.70539 82.29463 0.11383 0.96076 11.5726 5.39509 2.18004 9.02087 -74.42675 -4.79775 -0.55822 -0.80729 1.26368 13.4594 -19.97024 11.98446 -10.81792 -14.75728 -2.58378 -2.2471 -5.69397 -14.56934 9.5759 8.93468 13.28878
0.01371 0.95612 0.00844 177.46218 0 2.42828 6.28103 0.47532 -1.42685 -17.75722 2.31672 1.6059 9.95859 -13.20481 -1.5614 10.69463 82.28028 0.09559 0.95994 12.32587 5.39972 1.69081 9.09637 -74.41623 -4.76012 -0.52537 -0.78229 1.2413 13.47877 -19.99816 11.99117 -10.8014 -14.75555 -2.55452 -2.27653 -5.67919 -14.61257 9.58723 8.93806 13.2998
0.01385 0.95616 0.00895 177.46465 0 2.4153 6.38388 0.47639 -1.36667 -18.42054 2.24722 1.58015 10.56932 -13.1553 -1.5061 10.68845 82.24117 0.08063 0.9549 13.01961 5.41715 1.2187 9.15792 -74.4012 -4.71815 -0.50591 -0.77651 1.22227 13.47276 -19.98963 11.98222 -10.78072 -14.74131 -2.51266 -2.29905 -5.68997 -14.67776 9.60152 8.94496 13.32335
0.01397 0.9563 0.00963 177.51638 0 2.36461 6.48874 0.49074 -1.31454 -18.92531 2.19848 1.51724 11.01209 -13.09077 -1.4632 10.69954 82.1277 0.0752 0.93753 13.47574 5.46464 0.75166 9.19207 -74.3724 -4.66606 -0.51327 -0.82203 1.21396 13.40006 -19.88039 11.92798 -10.74983 -14.69189 -2.43543 -2.30071 -5.77007 -14.80077 9.62162 8.95984 13.38078
0.01407 0.95647 0.01037 177.58611 0 2.30058 6.60026 0.50888 -1.26275 -19.40151 2.15808 1.44189 11.42078 -13.022 -1.42636 10.71645 81.99079 0.07321 0.91623 13.87101 5.52229 0.30634 9.21282 -74.34051 -4.60975 -0.53351 -0.88575 1.20857 13.30354 -19.73664 11.85851 -10.71502 -14.63089 -2.34567 -2.29613 -5.87493 -14.94549 9.6448 8.97834 13.45023
0.01417 0.95662 0.01111 177.64704 0 2.24332 6.71265 0.52402 -1.20884 -19.91062 2.11882 1.37388 11.86248 -12.96141 -1.38826 10.73268 81.86947 0.06961 0.89699 14.31081 5.57128 -0.12979 9.23855 -74.31331 -4.55529 -0.54906 -0.93949 1.20083 13.22023 -19.61237 11.79733 -10.68176 -14.57729 -2.26213 -2.29594 -5.96691 -15.07991 9.66715 8.99561 13.51316
0.01429 0.95679 0.01176 177.71086 0 2.1827 6.80921 0.54458 -1.16176 -20.33777 2.05756 1.29734 12.23229 -12.87192 -1.34191 10.74054 81.72743 0.06583 0.87588 14.6812 5.63884 -0.64615 9.26829 -74.27235 -4.50113 -0.56053 -1.00128 1.19783 13.12556 -19.47021 11.72987 -10.6488 -14.51414 -2.17639 -2.28854 -6.06626 -15.21611 9.6869 9.01105 13.58083
0.01437 0.95693 0.01261 177.77288 0 2.12622 6.94085 0.55474 -1.10159 -20.93222 2.04386 1.23692 12.74716 -12.8425 -1.31634 10.76641 81.62266 0.06365 0.85861 15.18505 5.66969 -0.98898 9.2862 -74.2588 -4.4451 -0.58357 -1.05015 1.18517 13.04964 -19.35869 11.67247 -10.615 -14.46845 -2.09222 -2.29538 -6.15597 -15.3542 9.71319 9.03141 13.64141
